<svg width="25" height="24" viewBox="0 0 25 24" fill="none" xmlns="http://www.w3.org/2000/svg">
<path d="M9.5 12C9.5 12.7956 9.81607 13.5587 10.3787 14.1213C10.9413 14.6839 11.7044 15 12.5 15C13.2956 15 14.0587 14.6839 14.6213 14.1213C15.1839 13.5587 15.5 12.7956 15.5 12C15.5 11.2044 15.1839 10.4413 14.6213 9.87868C14.0587 9.31607 13.2956 9 12.5 9C11.7044 9 10.9413 9.31607 10.3787 9.87868C9.81607 10.4413 9.5 11.2044 9.5 12Z" stroke="#6C757D" stroke-width="2" stroke-linecap="round" stroke-linejoin="round"/>
<path d="M3.5 8C3.5 7.46957 3.71071 6.96086 4.08579 6.58579C4.46086 6.21071 4.96957 6 5.5 6H19.5C20.0304 6 20.5391 6.21071 20.9142 6.58579C21.2893 6.96086 21.5 7.46957 21.5 8V16C21.5 16.5304 21.2893 17.0391 20.9142 17.4142C20.5391 17.7893 20.0304 18 19.5 18H5.5C4.96957 18 4.46086 17.7893 4.08579 17.4142C3.71071 17.0391 3.5 16.5304 3.5 16V8Z" stroke="#6C757D" stroke-width="2" stroke-linecap="round" stroke-linejoin="round"/>
<path d="M18.5 12H18.51" stroke="#6C757D" stroke-width="2" stroke-linecap="round" stroke-linejoin="round"/>
<path d="M6.5 12H6.51" stroke="#6C757D" stroke-width="2" stroke-linecap="round" stroke-linejoin="round"/>
</svg>
