<svg width="12" height="12" viewBox="0 0 12 12" fill="none" xmlns="http://www.w3.org/2000/svg">
<path d="M8.5 1.66995C9.25413 2.10537 9.88147 2.73021 10.3199 3.4826C10.7583 4.23498 10.9927 5.08883 10.9997 5.95962C11.0067 6.8304 10.7862 7.68792 10.36 8.44729C9.93378 9.20667 9.31662 9.84155 8.56962 10.2891C7.82262 10.7367 6.97168 10.9814 6.10105 10.999C5.23042 11.0166 4.37028 10.8065 3.60578 10.3896C2.84128 9.97261 2.19894 9.36321 1.74233 8.6217C1.28573 7.8802 1.0307 7.0323 1.0025 6.16195L1 5.99995L1.0025 5.83795C1.0305 4.97444 1.28177 4.13293 1.73182 3.39544C2.18187 2.65796 2.81533 2.04967 3.57045 1.62989C4.32557 1.2101 5.17657 0.993145 6.0405 1.00017C6.90443 1.00719 7.7518 1.23795 8.5 1.66995ZM5.2555 4.56995C5.15074 4.50759 5.02681 4.48565 4.907 4.50826C4.7872 4.53087 4.67979 4.59648 4.60497 4.69274C4.53015 4.78899 4.49308 4.90927 4.50073 5.03095C4.50838 5.15262 4.56022 5.26731 4.6465 5.35345L5.2925 5.99995L4.6465 6.64645L4.605 6.69345C4.52729 6.79394 4.49075 6.92025 4.5028 7.04671C4.51485 7.17317 4.57458 7.29031 4.66986 7.37432C4.76514 7.45834 4.88883 7.50294 5.01581 7.49906C5.14278 7.49518 5.26352 7.44312 5.3535 7.35345L6 6.70745L6.6465 7.35345L6.6935 7.39495C6.794 7.47265 6.9203 7.50919 7.04676 7.49715C7.17322 7.4851 7.29036 7.42537 7.37438 7.33009C7.45839 7.2348 7.50299 7.11111 7.49911 6.98414C7.49524 6.85716 7.44317 6.73642 7.3535 6.64645L6.7075 5.99995L7.3535 5.35345L7.395 5.30645C7.47271 5.20595 7.50925 5.07964 7.4972 4.95318C7.48515 4.82672 7.42542 4.70959 7.33014 4.62557C7.23486 4.54155 7.11117 4.49695 6.98419 4.50083C6.85722 4.50471 6.73648 4.55677 6.6465 4.64645L6 5.29245L5.3535 4.64645L5.3065 4.60495L5.2555 4.56995Z" fill="#D63031"/>
</svg>
