<svg width="48" height="48" viewBox="0 0 48 48" fill="none" xmlns="http://www.w3.org/2000/svg">
<path d="M37.7998 14C39.6087 17.0024 40.3816 20.5157 39.9998 24V26C39.9975 28.1057 40.5493 30.175 41.5998 32" stroke="#8A2245" stroke-width="2" stroke-linecap="round" stroke-linejoin="round"/>
<path d="M16 22C16 19.8783 16.8429 17.8434 18.3431 16.3431C19.8434 14.8429 21.8783 14 24 14C26.1217 14 28.1566 14.8429 29.6569 16.3431C31.1571 17.8434 32 19.8783 32 22V24C32 28.3274 33.4036 32.5381 36 36" stroke="#8A2245" stroke-width="2" stroke-linecap="round" stroke-linejoin="round"/>
<path d="M24 22V26C23.9936 31.7188 25.7385 37.3024 29 42" stroke="#8A2245" stroke-width="2" stroke-linecap="round" stroke-linejoin="round"/>
<path d="M16 30C16.4894 34.1797 17.7079 38.2412 19.6 42" stroke="#8A2245" stroke-width="2" stroke-linecap="round" stroke-linejoin="round"/>
<path d="M9.79987 37.9997C8.45037 33.4603 7.84255 28.7328 7.99987 23.9997V21.9997C7.9922 19.1874 8.72592 16.4228 10.1271 13.9844C11.5282 11.546 13.5474 9.52001 15.981 8.11055C18.4146 6.70109 21.1767 5.95797 23.989 5.95606C26.8012 5.95415 29.5644 6.69353 31.9999 8.09968" stroke="#8A2245" stroke-width="2" stroke-linecap="round" stroke-linejoin="round"/>
</svg>
