<svg width="32" height="32" viewBox="0 0 32 32" fill="none" xmlns="http://www.w3.org/2000/svg">
<path d="M25.2 9.3335C26.4059 11.3351 26.9212 13.6773 26.6666 16.0002V17.3335C26.6651 18.7373 27.0329 20.1168 27.7333 21.3335" stroke="#6C757D" stroke-width="2" stroke-linecap="round" stroke-linejoin="round"/>
<path d="M10.6667 14.6668C10.6667 13.2523 11.2287 11.8958 12.2288 10.8956C13.229 9.8954 14.5856 9.3335 16.0001 9.3335C17.4146 9.3335 18.7711 9.8954 19.7713 10.8956C20.7715 11.8958 21.3334 13.2523 21.3334 14.6668V16.0002C21.3334 18.8851 22.2691 21.6922 24.0001 24.0002" stroke="#6C757D" stroke-width="2" stroke-linecap="round" stroke-linejoin="round"/>
<path d="M16 14.6665V17.3332C15.9958 21.1457 17.159 24.8681 19.3333 27.9998" stroke="#6C757D" stroke-width="2" stroke-linecap="round" stroke-linejoin="round"/>
<path d="M10.6667 20C10.993 22.7864 11.8053 25.4941 13.0667 28" stroke="#6C757D" stroke-width="2" stroke-linecap="round" stroke-linejoin="round"/>
<path d="M6.53333 25.3331C5.63366 22.3069 5.22845 19.1552 5.33333 15.9998V14.6665C5.32822 12.7916 5.81736 10.9485 6.75147 9.32293C7.68558 7.69734 9.03165 6.34667 10.6541 5.40703C12.2765 4.46739 14.1179 3.97198 15.9927 3.97071C17.8676 3.96943 19.7097 4.46235 21.3333 5.39979" stroke="#6C757D" stroke-width="2" stroke-linecap="round" stroke-linejoin="round"/>
</svg>
