<svg width="34" height="34" viewBox="0 0 34 34" fill="none" xmlns="http://www.w3.org/2000/svg">
<path d="M4.25 17H5.66667M17 4.25V5.66667M28.3333 17H29.75M7.93333 7.93333L8.925 8.925M26.0667 7.93333L25.075 8.925" stroke="black" stroke-width="2" stroke-linecap="round" stroke-linejoin="round"/>
<path d="M12.7498 22.667C11.5605 21.775 10.682 20.5314 10.2387 19.1123C9.79542 17.6933 9.80987 16.1708 10.28 14.7604C10.7501 13.35 11.6521 12.1233 12.8581 11.254C14.0642 10.3848 15.5132 9.91699 16.9998 9.91699C18.4865 9.91699 19.9355 10.3848 21.1415 11.254C22.3476 12.1233 23.2496 13.35 23.7197 14.7604C24.1898 16.1708 24.2043 17.6933 23.761 19.1123C23.3177 20.5314 22.4392 21.775 21.2498 22.667C20.6967 23.2145 20.2803 23.8845 20.0342 24.6229C19.788 25.3612 19.7192 26.1471 19.8332 26.917C19.8332 27.6684 19.5347 28.3891 19.0033 28.9205C18.472 29.4518 17.7513 29.7503 16.9998 29.7503C16.2484 29.7503 15.5277 29.4518 14.9964 28.9205C14.465 28.3891 14.1665 27.6684 14.1665 26.917C14.2805 26.1471 14.2116 25.3612 13.9655 24.6229C13.7194 23.8845 13.3029 23.2145 12.7498 22.667Z" stroke="black" stroke-width="2" stroke-linecap="round" stroke-linejoin="round"/>
<path d="M13.7417 24.083H20.2584" stroke="black" stroke-width="2" stroke-linecap="round" stroke-linejoin="round"/>
</svg>
