<svg width="150" height="181" viewBox="0 0 150 181" fill="none" xmlns="http://www.w3.org/2000/svg">
  <g clip-path="url(#clip0_709_1019)">
    <path fill-rule="evenodd" clip-rule="evenodd"
      d="M76.5383 4.10623C73.9101 17.1302 68.846 32.2713 63.9101 38.3021C67.1794 42.6648 70.7691 51.0695 71.1537 55.0472C73.846 50.6845 79.2947 50.6845 81.987 55.0472C83.1409 49.658 86.7947 41.2534 89.2306 38.238C85.3845 34.4527 79.0383 17.3227 76.5383 4.10623ZM50.9614 22.3911C52.8204 18.4775 54.1024 10.137 53.5255 5.64601C49.7435 2.43814 42.564 2.37398 39.1665 5.5177C38.846 5.83848 38.4614 6.28758 38.205 6.80084C37.6281 7.82736 37.0511 9.49545 36.987 10.6503C36.9229 11.4843 37.1152 12.1901 37.4999 12.4467C39.0383 13.8582 40.7691 14.7564 43.5255 16.2961C46.4742 17.9642 49.1024 20.5947 50.9614 22.3911ZM58.9742 4.87612C60.705 -0.705573 69.9358 -1.79625 73.3973 3.20803C75.064 5.13275 73.205 14.2431 69.6152 21.4287C67.4999 20.0814 64.6152 16.4245 62.2435 12.8316C60.3845 9.94456 58.4614 7.37826 58.9742 4.87612ZM22.564 11.9976C30.7691 11.4843 35.6409 13.0883 41.7947 17.3868C47.0511 21.0438 51.6024 25.0215 55.5768 30.0258C61.4101 37.4039 66.987 47.0917 68.5255 52.93C64.0383 50.5562 58.0768 52.4809 56.7306 56.7153C55.1281 55.0472 52.4358 53.1225 50.4486 52.93C49.2306 57.1644 48.9101 65.1199 49.7435 68.7769C47.4358 64.9916 45.064 55.4963 44.9999 49.7221C41.6024 33.1054 37.3717 18.8624 22.564 11.9976ZM102.051 22.3911C100.192 18.4775 98.9101 10.137 99.487 5.64601C103.269 2.43814 110.449 2.37398 113.846 5.5177C114.167 5.83848 114.551 6.28758 114.808 6.80084C115.384 7.82736 115.961 9.49545 116.026 10.6503C116.09 11.4843 115.897 12.1901 115.513 12.4467C113.974 13.8582 112.243 14.7564 109.487 16.2961C106.538 17.9642 103.846 20.5947 102.051 22.3911ZM93.9742 4.87612C92.2435 -0.705573 83.0127 -1.79625 79.5511 3.20803C77.8845 5.13275 79.7435 14.2431 83.3332 21.4287C85.4486 20.0814 88.3332 16.4245 90.705 12.8316C92.564 9.94456 94.5512 7.37826 93.9742 4.87612ZM130.449 11.9976C122.243 11.4843 117.372 13.0883 111.218 17.3868C105.961 21.0438 101.41 25.0215 97.4358 30.0258C91.6024 37.4039 86.0255 47.0917 84.487 52.93C88.9742 50.5562 94.9358 52.4809 96.2819 56.7153C97.8845 55.0472 100.577 53.1225 102.564 52.93C103.782 57.1644 104.102 65.1199 103.269 68.7769C105.577 64.9916 107.949 55.4963 108.013 49.7221C111.346 33.1054 115.641 18.8624 130.449 11.9976Z"
      fill="black" />
    <path fill-rule="evenodd" clip-rule="evenodd"
      d="M55.6408 4.29883C55.5767 10.7146 53.91 20.4023 52.3075 23.7385C56.2177 27.9729 61.6024 34.3887 62.9485 36.5058C65.1921 34.2603 68.269 27.9729 69.0382 23.8668C64.1665 19.9532 57.5639 10.2655 55.6408 4.29883ZM97.3075 4.29883C97.3716 10.7146 99.0383 20.4023 100.641 23.7385C96.7306 27.9729 91.3459 34.3887 89.9998 36.5058C87.7562 34.2603 84.6793 27.9729 83.91 23.8668C88.7818 19.9532 95.4485 10.2655 97.3075 4.29883ZM122.756 19.8249C121.218 21.8138 119.102 24.5084 118.461 25.2783C120.577 26.2407 122.949 28.2937 124.487 30.0901C125.705 31.6299 126.346 33.2338 126.666 35.1585C126.987 36.7625 127.051 38.5589 126.987 40.3553C127.372 51.262 127.243 92.836 127.307 123.503C118.205 123.567 96.8588 123.503 84.487 123.439C84.4229 114.906 84.4229 97.9045 84.487 89.3716C97.9485 85.2655 104.102 72.8189 101.602 55.6889C98.5254 56.9721 93.3972 62.6179 91.2818 66.9806C90.3203 62.4254 87.0511 56.3305 84.487 54.6624C80.4485 61.3989 78.4613 76.091 78.5254 86.9336C78.5254 96.6213 78.5254 117.922 78.4613 129.406C96.2818 129.406 124.102 129.406 134.166 129.406C134.295 112.661 134.166 67.3014 134.231 38.7514C134.743 30.5392 129.231 21.493 122.756 19.8249ZM30.2562 19.8249C31.7947 21.8138 33.9101 24.5084 34.5511 25.2783C32.4357 26.2407 30.0639 28.2937 28.5254 30.0901C27.3075 31.6299 26.6665 33.2338 26.3459 35.1585C26.0254 36.7625 25.9613 38.5589 26.0254 40.3553C25.6408 51.262 25.769 92.836 25.7049 123.503C34.8075 123.567 56.1536 123.503 68.5254 123.439C68.5895 114.906 68.5895 97.9045 68.5254 89.3716C55.0639 85.2655 48.91 72.8189 51.41 55.6889C54.487 56.9721 59.6152 62.6179 61.7306 66.9806C62.6921 62.4254 65.9613 56.3305 68.5254 54.6624C72.5639 61.3989 74.5511 76.091 74.487 86.9336C74.487 96.6213 74.487 117.922 74.5511 129.406C56.7306 129.406 28.9101 129.406 18.8459 129.406C18.7177 112.661 18.8459 67.3014 18.7818 38.7514C18.2049 30.5392 23.7818 21.493 30.2562 19.8249Z"
      fill="#AF7D5A" />
    <path fill-rule="evenodd" clip-rule="evenodd"
      d="M134.038 163.281V163.987C134.038 165.206 134.359 166.104 135.064 166.553C135.449 166.81 135.897 166.938 136.474 166.938C136.923 166.938 137.244 166.489 137.628 165.526C137.692 165.334 137.756 165.077 137.821 164.821C137.885 164.564 138.013 164.436 138.141 164.436C138.269 164.436 138.397 164.564 138.397 164.885C138.397 165.013 138.397 165.206 138.333 165.398C138.269 165.655 138.269 165.847 138.205 165.976C137.821 167.772 137.308 169.119 136.731 170.146C136.154 171.108 135.513 171.621 134.872 171.621C133.846 171.621 133.205 171.172 132.821 170.274C132.436 169.376 132.244 168.221 132.244 166.81C132.244 166.425 132.436 164.885 132.756 162.062C133.077 159.239 133.333 157.122 133.59 155.646C133.59 155.518 133.846 154.876 134.295 153.786C134.744 152.695 135.128 151.797 135.385 151.219C135.449 151.219 135.513 151.155 135.577 151.155C135.577 151.219 135.577 151.476 135.513 151.861L135.321 153.016L134.551 158.533C134.423 159.624 134.295 160.586 134.231 161.42C134.103 162.319 134.038 162.896 134.038 163.281ZM18.4615 155.39C18.3333 156.031 18.2051 156.544 18.141 156.865C18.0769 157.186 17.9487 157.571 17.8205 158.02C17.5 159.047 17.0513 160.137 16.4103 161.228C15.8333 162.319 15.1282 163.345 14.359 164.307C13.141 165.783 11.859 166.874 10.5128 167.579C9.16667 168.349 7.62821 168.67 5.96154 168.67C4.03846 168.67 2.62821 168.093 1.60256 166.874C0.51282 165.719 0 164.243 0 162.383C0 161.42 0.128205 160.458 0.384615 159.367C0.641026 158.277 0.897436 157.378 1.15385 156.673C1.41026 155.967 1.79487 155.197 2.17949 154.427C2.69231 153.401 3.26923 152.374 3.84615 151.283C4.10256 150.834 4.23077 150.642 4.29487 150.578C4.35897 150.514 4.42308 150.514 4.55128 150.578C4.61538 150.578 4.61538 150.77 4.55128 151.091C4.48718 151.412 4.42308 151.668 4.42308 151.861L2.94872 155.133C2.5641 156.159 2.30769 156.801 2.17949 157.186C1.98718 157.828 1.85897 158.533 1.85897 159.239C1.85897 161.035 2.4359 162.319 3.65385 163.088C4.55128 163.666 5.70513 163.987 7.11539 163.987C8.14103 163.987 8.97436 163.922 9.74359 163.73C10.5128 163.538 11.2821 163.217 12.1154 162.768C12.9487 162.319 13.7179 161.677 14.359 160.971C14.8077 160.458 15.3205 159.816 15.9615 158.918C16.3462 158.341 16.6026 157.763 16.7949 157.25C16.9872 156.737 17.0513 156.095 17.0513 155.261L17.1154 151.989C17.1154 151.476 17.1795 150.963 17.3077 150.514C17.4359 150.065 17.6282 149.487 17.8846 148.781L18.7821 146.985C18.9744 146.664 19.1026 146.472 19.1026 146.343C19.1667 146.279 19.2308 146.151 19.359 146.023C19.4872 146.151 19.5513 146.343 19.5513 146.6L19.2949 148.204L19.0385 150.449C19.0385 151.348 18.9744 152.118 18.9103 152.759C18.8462 153.337 18.6538 154.235 18.4615 155.39ZM12.6282 153.016C12.6282 153.144 12.6923 153.272 12.6923 153.529C12.6923 154.042 12.5 154.62 12.1795 155.133C11.4744 156.159 10.8974 156.673 10.5769 156.737C10.5128 156.737 10.3846 156.673 10.1923 156.48C9.48718 155.967 9.16667 155.71 9.10256 155.646C8.78205 155.454 8.52564 155.261 8.26923 155.133C8.01282 154.94 7.88462 154.748 7.82051 154.556L8.84615 152.182C9.16667 151.604 9.48718 151.155 9.67949 150.77C9.74359 150.706 9.80769 150.514 9.9359 150.385C10.1282 150.449 10.3205 150.578 10.4487 150.642C10.641 150.706 10.7692 150.77 10.8974 150.899C11.5385 151.412 11.9872 151.797 12.1795 152.053C12.5 152.374 12.6282 152.695 12.6282 153.016ZM22.5 156.929C22.5 158.277 22.6923 159.367 23.0128 160.073C23.4615 161.1 24.2308 161.549 25.3846 161.549C26.0897 161.549 26.7308 161.292 27.2436 160.715C27.4359 160.522 27.7564 159.945 28.3333 158.982C28.5897 158.533 28.9103 158.02 29.2949 157.378C29.5513 156.929 29.8718 156.609 30.0641 156.48C30.3205 156.352 30.4487 156.288 30.5769 156.288C30.7692 156.288 31.0897 156.416 31.4103 156.673C31.9872 157.122 33.3974 157.507 35.641 157.763C37.8846 158.02 39.8077 158.212 41.5385 158.212C43.718 158.212 45.7692 158.084 47.7564 157.892C50.8333 157.571 53.9103 156.929 56.9231 156.095C60 155.261 63.5897 153.721 67.7564 151.54C71.0897 149.808 73.7821 148.14 75.7692 146.6C76.6026 145.958 77.7564 145.124 79.1667 144.098C80.3846 143.264 81.6026 142.366 82.8846 141.467C83.4615 141.018 84.1667 140.633 85 140.313C85.2564 140.184 85.641 140.056 86.0256 139.928C86.4103 139.799 86.7949 139.543 87.1154 139.158C87.4359 138.773 87.7564 138.324 88.0769 137.81C88.3974 137.105 88.5898 136.72 88.6539 136.591C88.6539 136.463 88.6538 136.399 88.4615 136.399C87.9487 136.591 87.4359 136.72 87.1154 136.912C87.0513 136.912 86.1538 137.425 84.4231 138.388C83.8462 138.709 82.1154 139.799 79.2308 141.788C76.3462 143.713 74.4231 144.932 73.5256 145.445C70.7692 147.113 68.0128 148.525 65.2564 149.68C63.3974 150.449 61.3462 151.155 59.1026 151.797C57.6923 152.182 56.4103 152.502 55.2564 152.759C53.2692 153.144 51.2821 153.401 49.359 153.593C47.4359 153.786 45.641 153.85 43.9744 153.85H42.6923C42.2436 153.85 41.9231 153.85 41.6667 153.786C40 153.786 38.5256 153.657 37.2436 153.401C35.9615 153.144 34.5513 152.823 33.0769 152.374C32.5641 152.182 31.9231 152.438 31.218 153.144C30.7692 153.657 30.2564 154.299 29.7436 155.133C29.359 155.71 29.1026 156.159 28.9103 156.352C28.5256 156.737 27.9487 156.929 27.3077 156.929C26.4103 156.929 25.7692 156.673 25.3205 156.224C24.8718 155.71 24.6154 154.876 24.4872 153.721V153.786C24.4872 153.786 24.4872 153.786 24.4872 153.721V152.759C24.4872 152.053 24.5513 151.091 24.6795 149.744C24.6795 149.68 24.8077 148.717 25.0641 146.792C25.3205 144.868 25.5128 143.392 25.641 142.43C25.8974 140.441 26.0256 139.222 26.0256 138.644C26.0256 138.452 26.0256 138.388 25.9615 138.324C25.8974 138.324 25.8333 138.388 25.8333 138.388L24.1026 142.879L23.5256 147.113L23.2051 150.449C23.0769 151.925 22.9487 153.144 22.8846 154.106C22.5641 155.069 22.5 155.967 22.5 156.929ZM24.359 169.119C24.4231 169.44 24.4231 169.761 24.2949 170.082C24.1667 170.402 24.0385 170.851 23.7821 171.236C23.5256 171.686 23.2692 172.07 22.8846 172.455C22.6282 172.712 22.4359 172.84 22.3077 172.84C22.2436 172.84 21.9872 172.712 21.6667 172.455C21.3462 172.199 21.0897 171.942 20.8333 171.75C20.5769 171.557 20.3846 171.365 20.1923 171.172C20 170.98 19.9359 170.852 19.9359 170.723C20.1282 170.338 20.2564 170.017 20.3205 169.825C20.641 169.183 20.8333 168.67 21.0256 168.349C21.2821 167.9 21.5385 167.451 21.859 166.938C21.9231 166.874 21.9872 166.681 22.1154 166.553C22.1795 166.617 22.3077 166.745 22.3718 166.81C22.4359 166.874 22.5641 166.938 22.7564 167.066C23.3974 167.579 23.7821 167.964 24.0385 168.221C24.1667 168.414 24.2949 168.734 24.359 169.119ZM29.0385 168.863C29.1026 169.183 29.1026 169.504 28.9744 169.825C28.8462 170.146 28.718 170.595 28.4615 170.98C28.2051 171.429 27.9487 171.814 27.5641 172.199C27.3077 172.455 27.1154 172.584 26.9872 172.584C26.9231 172.584 26.6667 172.455 26.3462 172.199C26.0256 171.942 25.7692 171.686 25.5128 171.493C25.2564 171.301 25.0641 171.108 24.8718 170.916C24.6795 170.723 24.6154 170.595 24.6154 170.467C24.8077 170.082 24.9359 169.761 25 169.568C25.3205 168.927 25.5128 168.414 25.7051 168.093C25.9615 167.644 26.218 167.195 26.5385 166.681C26.6026 166.617 26.6667 166.425 26.7949 166.296C26.859 166.36 26.9872 166.489 27.0513 166.553C27.1154 166.617 27.2436 166.681 27.4359 166.81C28.0769 167.323 28.4615 167.708 28.7179 167.964C28.8462 168.157 28.9744 168.478 29.0385 168.863ZM77.2436 152.053C77.2436 152.438 77.1795 153.016 76.9872 153.85C76.859 154.684 76.6667 155.454 76.5385 156.095L76.0256 158.341C75.7051 159.175 75.5128 159.816 75.3205 160.201C75.0641 160.779 74.8077 161.228 74.5513 161.613C74.2949 161.998 74.1026 162.254 73.8462 162.447C73.5897 162.639 73.2051 162.896 72.6282 163.217L71.0256 163.922C70.8974 163.987 70.5128 164.051 69.9359 164.179C69.359 164.307 69.0385 164.372 68.8462 164.372C68.7179 164.372 68.5897 164.307 68.5897 164.243C68.5897 164.115 68.5897 163.987 68.6538 163.858C68.7821 163.602 69.1667 163.217 69.8077 162.704C70.4487 162.19 71.0256 161.741 71.6667 161.292C72.3718 160.65 72.8846 160.137 73.2051 159.816C73.7179 159.303 74.1667 158.662 74.5513 157.956C74.6154 157.828 74.7436 157.507 74.9359 157.058C75.1282 156.609 75.3846 155.839 75.7051 154.748L76.2179 153.144C76.2821 152.887 76.3462 152.631 76.4744 152.246C76.6026 151.925 76.7308 151.733 76.9231 151.733C77.1795 151.797 77.2436 151.925 77.2436 152.053ZM83.9744 154.684V155.39C83.9744 156.609 84.2949 157.507 85 157.956C85.3846 158.212 85.8333 158.341 86.4103 158.341C86.859 158.341 87.1795 157.892 87.5641 156.929C87.6282 156.737 87.6923 156.48 87.7564 156.224C87.8205 155.967 87.9487 155.839 88.0769 155.839C88.2051 155.839 88.3333 155.967 88.3333 156.288C88.3333 156.416 88.3333 156.609 88.2692 156.801C88.2051 157.058 88.2051 157.25 88.141 157.378C87.7564 159.175 87.2436 160.522 86.6667 161.549C86.0897 162.511 85.4487 163.024 84.8077 163.024C83.7821 163.024 83.141 162.575 82.7564 161.677C82.3718 160.779 82.1795 159.624 82.1795 158.212C82.1795 157.828 82.3718 156.288 82.6923 153.465C83.0128 150.642 83.2692 148.525 83.5256 147.049C83.5256 146.921 83.7821 146.279 84.2308 145.189C84.6795 144.098 85.0641 143.2 85.3205 142.622C85.3846 142.622 85.4487 142.558 85.5128 142.558C85.5128 142.622 85.5128 142.879 85.4487 143.264L85.2564 144.419L84.4872 149.936C84.359 151.027 84.2308 151.989 84.1667 152.823C83.9744 153.721 83.9744 154.299 83.9744 154.684ZM86.1538 177.331C86.1538 177.78 86.0897 178.101 86.0256 178.294C85.9615 178.486 85.7692 178.807 85.5769 179.128C84.8718 180.09 84.2949 180.539 83.9103 180.539C83.8462 180.539 83.6539 180.411 83.3974 180.154C83.141 179.898 82.8846 179.641 82.6923 179.384C81.9872 178.743 81.6026 178.358 81.6026 178.23C81.6026 178.101 81.7949 177.716 82.1154 177.075C82.3718 176.626 82.5641 176.305 82.6923 176.048C83.0128 175.535 83.2051 175.15 83.2692 175.022C83.5897 174.573 83.7821 174.316 83.8462 174.316C83.9103 174.316 84.0385 174.38 84.1667 174.508C84.359 174.637 84.5513 174.765 84.7436 175.022C85.3205 175.535 85.7051 175.984 85.8333 176.305C86.0897 176.69 86.1538 177.011 86.1538 177.331ZM84.1026 171.621C84.1026 172.07 84.0385 172.391 83.9744 172.584C83.9103 172.776 83.718 173.097 83.5256 173.418C82.8205 174.38 82.2436 174.829 81.859 174.829C81.7949 174.829 81.6026 174.701 81.3462 174.444C81.0897 174.188 80.8333 173.931 80.641 173.674C79.9359 173.033 79.5513 172.648 79.5513 172.52C79.5513 172.391 79.7436 172.006 80.0641 171.365C80.3205 170.916 80.5128 170.595 80.641 170.338C80.9615 169.825 81.1538 169.44 81.2179 169.312C81.5385 168.863 81.7308 168.606 81.7949 168.606C81.859 168.606 81.9872 168.67 82.1154 168.798C82.3077 168.927 82.5 169.055 82.6923 169.312C83.2692 169.825 83.6538 170.274 83.7821 170.595C83.9744 170.98 84.1026 171.301 84.1026 171.621ZM88.5897 171.621C88.5897 172.07 88.5256 172.391 88.4615 172.584C88.3974 172.776 88.2051 173.097 88.0128 173.418C87.3077 174.38 86.7308 174.829 86.3462 174.829C86.2821 174.829 86.0897 174.701 85.8333 174.444C85.5769 174.188 85.3205 173.931 85.1282 173.674C84.4231 173.033 84.0385 172.648 84.0385 172.52C84.0385 172.391 84.2308 172.006 84.5513 171.365C84.8077 170.916 85 170.595 85.1282 170.338C85.4487 169.825 85.641 169.44 85.7051 169.312C86.0256 168.863 86.218 168.606 86.2821 168.606C86.3462 168.606 86.4744 168.67 86.6026 168.798C86.7949 168.927 86.9872 169.055 87.1795 169.312C87.7564 169.825 88.141 170.274 88.2692 170.595C88.4615 170.98 88.5897 171.301 88.5897 171.621ZM129.038 146.921C129.679 146.215 131.09 144.932 133.269 143.2C135.192 141.66 137.115 140.12 139.038 138.516C140.449 137.361 141.731 136.206 143.013 135.052C143.91 134.218 145.128 133.063 146.603 131.587C148.846 129.406 150 128.315 150 128.251C150 128.379 150 128.508 149.936 128.636C149.872 129.085 149.551 129.662 149.103 130.561C148.59 131.395 148.205 132.036 147.885 132.485C147.372 133.127 146.859 133.769 146.346 134.346C145.769 134.988 145.321 135.437 145 135.757C144.551 136.207 143.782 136.912 142.692 137.875C141.859 138.58 140.641 139.671 139.038 141.018C137.885 141.981 136.859 142.815 135.962 143.52C134.744 144.483 133.526 145.381 132.308 146.279L129.167 148.717C128.718 149.102 128.269 149.423 127.885 149.744C127.5 150.064 127.244 150.193 127.179 150.064C127.436 149.423 127.692 148.781 128.013 148.268C128.269 147.819 128.59 147.37 129.038 146.921ZM125.321 163.281V163.987C125.321 165.206 125.641 166.104 126.346 166.553C126.731 166.81 127.179 166.938 127.756 166.938C128.205 166.938 128.526 166.489 128.91 165.526C128.974 165.334 129.038 165.077 129.103 164.821C129.167 164.564 129.295 164.436 129.423 164.436C129.551 164.436 129.679 164.564 129.679 164.885C129.679 165.013 129.679 165.206 129.615 165.398C129.551 165.655 129.551 165.847 129.487 165.976C129.103 167.772 128.59 169.119 128.013 170.146C127.436 171.108 126.795 171.621 126.154 171.621C125.128 171.621 124.487 171.172 124.103 170.274C123.718 169.376 123.526 168.221 123.526 166.81C123.526 166.104 123.59 165.334 123.654 164.436C123.782 163.538 123.846 162.96 123.846 162.704L123.91 162.19C123.91 162.126 123.91 162.062 123.846 161.998C123.846 161.998 123.782 161.998 123.654 162.062C123.526 162.19 123.333 162.511 123.077 162.896C122.5 163.666 122.051 164.243 121.795 164.628C120.897 165.783 119.744 166.874 118.397 167.836C117.051 168.863 115.577 169.632 114.038 170.21C112.5 170.787 110.769 171.429 108.782 171.686C104.359 172.263 97.9487 172.648 93.6539 171.878C92.3718 171.621 91.4744 171.236 91.0256 170.659C90.5769 170.082 90.3205 169.248 90.3205 168.093C90.3205 167.13 90.3846 166.104 90.5128 165.077C90.641 164.051 90.8333 163.538 91.0898 163.538C91.1539 163.538 91.2179 163.858 91.2821 164.436C91.3462 165.013 91.5385 165.526 91.9231 165.976C93.8462 168.157 104.551 167.644 107.179 167.387C112.115 166.938 116.154 165.783 119.295 163.794C120.769 162.896 121.923 161.869 122.756 160.65C123.397 159.688 123.91 158.597 124.231 157.314L124.872 154.748C124.936 154.491 125.256 153.721 125.897 152.438C126.282 151.604 126.538 151.091 126.667 150.899C126.795 150.642 126.923 150.449 127.115 150.257C127.115 150.514 127.115 150.706 127.115 150.963C126.987 151.604 126.859 152.118 126.795 152.502L125.833 157.25C125.641 158.533 125.513 159.752 125.449 160.779C125.385 161.934 125.321 162.704 125.321 163.281ZM130.897 139.222C130.962 139.543 130.962 139.863 130.833 140.184C130.705 140.505 130.577 140.954 130.321 141.339C130.064 141.788 129.808 142.173 129.423 142.558C129.167 142.815 128.974 142.943 128.846 142.943C128.782 142.943 128.526 142.815 128.205 142.558C127.885 142.301 127.628 142.045 127.372 141.852C127.115 141.66 126.923 141.467 126.731 141.275C126.538 141.082 126.474 140.954 126.474 140.826C126.667 140.441 126.795 140.12 126.859 139.928C127.179 139.286 127.372 138.773 127.564 138.452C127.821 138.003 128.077 137.554 128.397 137.041C128.462 136.976 128.526 136.784 128.654 136.656C128.718 136.72 128.846 136.848 128.91 136.912C128.974 136.976 129.103 137.041 129.295 137.169C129.936 137.682 130.321 138.067 130.577 138.324C130.641 138.516 130.833 138.837 130.897 139.222ZM137.885 175.92C137.949 176.241 137.949 176.562 137.821 176.882C137.692 177.203 137.564 177.652 137.308 178.037C137.051 178.486 136.795 178.871 136.41 179.256C136.154 179.513 135.962 179.641 135.833 179.641C135.769 179.641 135.513 179.513 135.192 179.256C134.872 178.999 134.615 178.743 134.359 178.55C134.103 178.358 133.91 178.165 133.718 177.973C133.526 177.78 133.462 177.652 133.462 177.524C133.654 177.139 133.782 176.818 133.846 176.626C134.167 175.984 134.359 175.471 134.551 175.15C134.808 174.701 135.064 174.252 135.385 173.739C135.449 173.674 135.513 173.482 135.641 173.354C135.705 173.418 135.833 173.546 135.897 173.61C135.962 173.674 136.09 173.739 136.282 173.867C136.923 174.38 137.308 174.765 137.564 175.022C137.692 175.214 137.821 175.535 137.885 175.92Z"
      fill="black" />
  </g>
  <defs>
    <clipPath id="clip0_709_1019">
      <rect width="150" height="180.539" fill="white" />
    </clipPath>
  </defs>
</svg>