<svg width="48" height="53" viewBox="0 0 48 53" fill="none" xmlns="http://www.w3.org/2000/svg">
<path fill-rule="evenodd" clip-rule="evenodd" d="M23.8848 1.67201C22.7987 6.98215 20.706 13.1555 18.6662 15.6144C20.0172 17.3932 21.5007 20.8199 21.6596 22.4417C22.7722 20.663 25.0239 20.663 26.1365 22.4417C26.6133 20.2444 28.1232 16.8177 29.1299 15.5883C27.5405 14.0449 24.9179 7.06063 23.8848 1.67201ZM13.3152 9.12714C14.0834 7.53148 14.6132 4.13089 14.3748 2.29981C12.8119 0.991892 9.84502 0.965734 8.44104 2.24749C8.30858 2.37828 8.14964 2.56139 8.04368 2.77066C7.80527 3.18919 7.56686 3.86931 7.54037 4.34016C7.51388 4.68022 7.59335 4.96796 7.75229 5.07259C8.38806 5.64808 9.10329 6.0143 10.2424 6.6421C11.4609 7.32221 12.547 8.39471 13.3152 9.12714ZM16.6265 1.98591C17.3417 -0.289867 21.1563 -0.734559 22.5868 1.30579C23.2755 2.09054 22.5073 5.80503 21.0239 8.73476C20.1497 8.18544 18.9576 6.69441 17.9775 5.22954C17.2093 4.05242 16.4146 3.00609 16.6265 1.98591ZM1.58008 4.88949C4.97082 4.68022 6.98407 5.33418 9.52713 7.08679C11.6993 8.57781 13.5801 10.1996 15.2225 12.24C17.6331 15.2482 19.9378 19.1981 20.5735 21.5785C18.7192 20.6107 16.2556 21.3954 15.6993 23.1219C15.0371 22.4417 13.9245 21.657 13.1033 21.5785C12.6 23.305 12.4675 26.5486 12.8119 28.0396C11.8583 26.4963 10.8781 22.6248 10.8516 20.2706C9.44766 13.4956 7.69931 7.68843 1.58008 4.88949ZM34.4279 9.12714C33.6597 7.53148 33.1299 4.13089 33.3683 2.29981C34.9312 0.991892 37.8981 0.965734 39.3021 2.24749C39.4346 2.37828 39.5935 2.56139 39.6995 2.77066C39.9379 3.18919 40.1763 3.86931 40.2028 4.34016C40.2293 4.68022 40.1498 4.96796 39.9908 5.07259C39.3551 5.64808 38.6398 6.0143 37.5008 6.6421C36.2822 7.32221 35.1696 8.39471 34.4279 9.12714ZM31.0901 1.98591C30.3749 -0.289867 26.5603 -0.734559 25.1299 1.30579C24.4411 2.09054 25.2093 5.80503 26.6928 8.73476C27.5669 8.18544 28.759 6.69441 29.7391 5.22954C30.5074 4.05242 31.3286 3.00609 31.0901 1.98591ZM46.1631 4.88949C42.7723 4.68022 40.7591 5.33418 38.216 7.08679C36.0438 8.57781 34.163 10.1996 32.5206 12.24C30.11 15.2482 27.8054 19.1981 27.1696 21.5785C29.0239 20.6107 31.4875 21.3954 32.0438 23.1219C32.706 22.4417 33.8186 21.657 34.6398 21.5785C35.1431 23.305 35.2756 26.5486 34.9312 28.0396C35.8849 26.4963 36.865 22.6248 36.8915 20.2706C38.269 13.4956 40.0438 7.68843 46.1631 4.88949Z" fill="#F8F9FA"/>
<path fill-rule="evenodd" clip-rule="evenodd" d="M15.2488 1.75098C15.2224 4.36681 14.5336 8.31672 13.8714 9.67696C15.4873 11.4034 17.7124 14.0192 18.2687 14.8825C19.1959 13.9669 20.4674 11.4034 20.7853 9.72927C18.772 8.13361 16.0436 4.1837 15.2488 1.75098ZM32.4675 1.75098C32.494 4.36681 33.1827 8.31672 33.845 9.67696C32.2291 11.4034 30.0039 14.0192 29.4476 14.8825C28.5204 13.9669 27.2489 11.4034 26.931 9.72927C28.9443 8.13361 31.6993 4.1837 32.4675 1.75098ZM42.9841 8.0813C42.3483 8.89221 41.4741 9.99086 41.2092 10.3048C42.0834 10.6971 43.0635 11.5342 43.6993 12.2666C44.2026 12.8944 44.4675 13.5484 44.6 14.3331C44.7324 14.9871 44.7589 15.7195 44.7324 16.452C44.8914 20.8989 44.8384 37.8495 44.8649 50.3532C41.1033 50.3794 32.282 50.3532 27.1694 50.327C27.1429 46.848 27.1429 39.916 27.1694 36.437C32.7324 34.7628 35.2754 29.6881 34.2423 22.7038C32.9708 23.227 30.8516 25.5289 29.9774 27.3077C29.58 25.4504 28.229 22.9654 27.1694 22.2853C25.5005 25.0319 24.6794 31.0222 24.7058 35.4429C24.7058 39.3928 24.7058 48.0774 24.6794 52.7598C32.0436 52.7598 43.5404 52.7598 47.6993 52.7598C47.7523 45.9324 47.6993 27.4385 47.7258 15.798C47.9377 12.4497 45.6596 8.76141 42.9841 8.0813ZM4.75874 8.0813C5.3945 8.89221 6.26868 9.99086 6.53358 10.3048C5.6594 10.6971 4.67927 11.5342 4.0435 12.2666C3.54019 12.8944 3.27529 13.5484 3.14284 14.3331C3.01038 14.9871 2.98389 15.7195 3.01038 16.452C2.85144 20.8989 2.90442 37.8495 2.87793 50.3532C6.63954 50.3794 15.4608 50.3532 20.5734 50.327C20.5999 46.848 20.5999 39.916 20.5734 36.437C15.0104 34.7628 12.4674 29.6881 13.5005 22.7038C14.772 23.227 16.8912 25.5289 17.7654 27.3077C18.1628 25.4504 19.5138 22.9654 20.5734 22.2853C22.2423 25.0319 23.0635 31.0222 23.037 35.4429C23.037 39.3928 23.037 48.0774 23.0635 52.7598C15.6992 52.7598 4.20244 52.7598 0.0434843 52.7598C-0.00949604 45.9324 0.0434842 27.4385 0.016994 15.798C-0.221418 12.4497 2.08323 8.76141 4.75874 8.0813Z" fill="#F8F9FA"/>
</svg>
