<svg width="25" height="24" viewBox="0 0 25 24" fill="none" xmlns="http://www.w3.org/2000/svg">
<path d="M12.5 3V15" stroke="#8A2245" stroke-width="2" stroke-linecap="round" stroke-linejoin="round"/>
<path d="M16.5 7L12.5 3" stroke="#8A2245" stroke-width="2" stroke-linecap="round" stroke-linejoin="round"/>
<path d="M8.5 7L12.5 3" stroke="#8A2245" stroke-width="2" stroke-linecap="round" stroke-linejoin="round"/>
<path d="M11.5 20C11.5 20.2652 11.6054 20.5196 11.7929 20.7071C11.9804 20.8946 12.2348 21 12.5 21C12.7652 21 13.0196 20.8946 13.2071 20.7071C13.3946 20.5196 13.5 20.2652 13.5 20C13.5 19.7348 13.3946 19.4804 13.2071 19.2929C13.0196 19.1054 12.7652 19 12.5 19C12.2348 19 11.9804 19.1054 11.7929 19.2929C11.6054 19.4804 11.5 19.7348 11.5 20Z" stroke="#8A2245" stroke-width="2" stroke-linecap="round" stroke-linejoin="round"/>
</svg>
