<svg width="25" height="24" viewBox="0 0 25 24" fill="none" xmlns="http://www.w3.org/2000/svg">
<path d="M18.5 14C19.2826 14 20.048 14.2296 20.7014 14.6603C21.3549 15.091 21.8676 15.7039 22.1761 16.4232C22.4846 17.1424 22.5753 17.9363 22.4371 18.7066C22.2988 19.4769 21.9376 20.1898 21.3983 20.7568C20.8589 21.3239 20.165 21.7202 19.4026 21.8968C18.6402 22.0734 17.8427 22.0225 17.1089 21.7503C16.3752 21.4782 15.7374 20.9967 15.2745 20.3657C14.8117 19.7346 14.5441 18.9816 14.505 18.2L14.5 18L14.505 17.8C14.5563 16.775 14.9996 15.809 15.7432 15.1017C16.4868 14.3944 17.4738 14 18.5 14Z" fill="#6C757D"/>
<path d="M17.2071 2.29279C17.3793 2.46498 17.4827 2.69408 17.498 2.93711C17.5133 3.18013 17.4394 3.42038 17.2901 3.61279L17.2071 3.70679L15.9141 4.99979H19.5001C20.2653 4.99974 21.0016 5.29211 21.5584 5.81707C22.1151 6.34203 22.4502 7.05989 22.4951 7.82379L22.5001 7.99979V10.9998C22.4998 11.2547 22.4022 11.4998 22.2273 11.6852C22.0523 11.8705 21.8131 11.982 21.5587 11.997C21.3043 12.0119 21.0537 11.9291 20.8583 11.7655C20.6628 11.6019 20.5372 11.3699 20.5071 11.1168L20.5001 10.9998V7.99979C20.5001 7.75485 20.4101 7.51845 20.2474 7.33541C20.0846 7.15238 19.8604 7.03544 19.6171 7.00679L19.5001 6.99979H15.9151L17.2071 8.29279C17.3864 8.47274 17.4906 8.71422 17.4983 8.96817C17.5061 9.22212 17.4169 9.4695 17.2489 9.66006C17.0808 9.85063 16.8465 9.97009 16.5936 9.99419C16.3407 10.0183 16.0881 9.9452 15.8871 9.78979L15.7931 9.70679L12.7931 6.70679C12.6789 6.59523 12.5938 6.45748 12.545 6.30551C12.4962 6.15354 12.4852 5.99195 12.5131 5.83479L12.5491 5.68879L12.5891 5.58479C12.6471 5.45879 12.7291 5.34479 12.8341 5.25079L15.7931 2.29279C15.9806 2.10532 16.2349 2 16.5001 2C16.7653 2 17.0196 2.10532 17.2071 2.29279Z" fill="#6C757D"/>
<path d="M3.5 12C3.74493 12 3.98134 12.09 4.16437 12.2527C4.34741 12.4155 4.46434 12.6397 4.493 12.883L4.5 13V16C4.50003 16.2449 4.58996 16.4813 4.75272 16.6644C4.91547 16.8474 5.13975 16.9643 5.383 16.993L5.5 17H9.085L7.793 15.707C7.62082 15.5348 7.51739 15.3057 7.50211 15.0627C7.48683 14.8197 7.56075 14.5794 7.71 14.387L7.793 14.293C7.96519 14.1208 8.19429 14.0174 8.43732 14.0021C8.68035 13.9868 8.9206 14.0607 9.113 14.21L9.207 14.293L12.207 17.293C12.3212 17.4046 12.4063 17.5423 12.4551 17.6943C12.5039 17.8462 12.5149 18.0078 12.487 18.165L12.451 18.311L12.411 18.415C12.353 18.5419 12.2697 18.6556 12.166 18.749L9.207 21.707C9.02704 21.8863 8.78557 21.9905 8.53162 21.9982C8.27767 22.006 8.03029 21.9168 7.83972 21.7488C7.64916 21.5807 7.52969 21.3464 7.5056 21.0935C7.48151 20.8406 7.55459 20.588 7.71 20.387L7.793 20.293L9.084 19H5.5C4.73479 19 3.99849 18.7077 3.44174 18.1827C2.88499 17.6578 2.54989 16.9399 2.505 16.176L2.5 16V13C2.5 12.7348 2.60536 12.4804 2.79289 12.2929C2.98043 12.1054 3.23478 12 3.5 12Z" fill="#6C757D"/>
<path d="M6.5 2C7.28261 2 8.04802 2.22958 8.70144 2.66029C9.35486 3.09101 9.86758 3.70394 10.1761 4.42318C10.4846 5.14241 10.5753 5.93634 10.4371 6.70664C10.2988 7.47694 9.93765 8.18976 9.39827 8.75681C8.8589 9.32386 8.16503 9.72023 7.40261 9.89683C6.64018 10.0734 5.84271 10.0225 5.10895 9.75033C4.37519 9.47817 3.73739 8.99674 3.27454 8.36567C2.81169 7.73461 2.54413 6.98163 2.505 6.2L2.5 6L2.505 5.8C2.55631 4.77504 2.9996 3.80901 3.74319 3.10172C4.48677 2.39444 5.47376 2 6.5 2Z" fill="#6C757D"/>
</svg>
